# xmcd
#
# Track frame offsets: 
#        150
#        19127
#        36120
#        46727
#        60737
#        78085
#        89835
#        106237
#        119775
#        134225
#        146465
#        161680
#
# Disc length: 2353 seconds
#
# Revision: 4
# Processed by: cddbd v1.4PL0 Copyright (c) Steve Scherf et al.
# Submitted via: ExactAudioCopy v0.90b2
#
DISCID=a8092f0c
DTITLE=The City - Now That Everything Has Been Said
DYEAR=1968
DGENRE=Rock
TTITLE0=Snow Queen
TTITLE1=I Wasn't Born To Follow
TTITLE2=Now That Everything's Been Said
TTITLE3=Paradise Alley
TTITLE4=Man Without A Dream
TTITLE5=Victim Of Circumstance
TTITLE6=Why Are You Leaving
TTITLE7=Lady
TTITLE8=My Sweet Home
TTITLE9=I Don't Believe It
TTITLE10=That Old Sweet Roll (Hi-De-Ho)
TTITLE11=All My Time
EXTD=
EXTT0=
EXTT1=
EXTT2=
EXTT3=
EXTT4=
EXTT5=
EXTT6=
EXTT7=
EXTT8=
EXTT9=
EXTT10=
EXTT11=
PLAYORDER=
